<?xml version="1.0" encoding="UTF-8" standalone="no"?>
<svg
   xmlns:dc="http://purl.org/dc/elements/1.1/"
   xmlns:cc="http://creativecommons.org/ns#"
   xmlns:rdf="http://www.w3.org/1999/02/22-rdf-syntax-ns#"
   xmlns:svg="http://www.w3.org/2000/svg"
   xmlns="http://www.w3.org/2000/svg"
   id="svg8"
   version="1.1"
   viewBox="0 0 52.916669 15.875"
   height="60"
   width="200">
  <defs
     id="defs2" />
  <metadata
     id="metadata5">
    <rdf:RDF>
      <cc:Work
         rdf:about="">
        <dc:format>image/svg+xml</dc:format>
        <dc:type
           rdf:resource="http://purl.org/dc/dcmitype/StillImage" />
        <dc:title></dc:title>
      </cc:Work>
    </rdf:RDF>
  </metadata>
  <g
     transform="translate(-21.911295,-16.783088)"
     id="layer1">
    <g
       id="flowRoot3713"
       style="font-style:normal;font-weight:normal;font-size:40px;line-height:1.25;font-family:sans-serif;letter-spacing:0px;word-spacing:0px;fill:#000000;fill-opacity:1;stroke:none"
       transform="matrix(0.47442426,0,0,0.47465375,-17.377839,-27.39659)"
       aria-label="skrībe">
      <path
         id="path20"
         style="font-style:italic;font-variant:normal;font-weight:bold;font-stretch:normal;font-family:'PT Serif';-inkscape-font-specification:'PT Serif Bold Italic';letter-spacing:0px"
         d="m 92.017422,120.20041 q 0,-0.88 -0.48,-1.56 -0.48,-0.72 -1.2,-1.4 -0.72,-0.68 -1.6,-1.32 -0.84,-0.68 -1.56,-1.52 -0.72,-0.84 -1.2,-1.84 -0.48,-1.04 -0.48,-2.4 0,-3.04 2.16,-4.52 2.2,-1.52 5.96,-1.52 0.64,0 1.4,0.08 0.8,0.04 1.6,0.2 0.8,0.16 1.52,0.4 0.76,0.2 1.36,0.56 0.04,0.44 -0.08,1.16 -0.08,0.68 -0.36,1.4 -0.24,0.68 -0.68,1.28 -0.4,0.56 -1,0.76 l -3.2,-3.56 q -1.28,0 -2.16,0.52 -0.84,0.52 -0.84,1.84 0,0.88 0.48,1.6 0.52,0.72 1.24,1.4 0.72,0.64 1.6,1.32 0.88,0.68 1.6,1.52 0.72,0.8 1.2,1.84 0.52,1.04 0.52,2.4 0,1.52 -0.68,2.68 -0.68,1.16 -1.88,1.96 -1.16,0.8 -2.8,1.2 -1.64,0.4 -3.56,0.4 -2.04,0 -3.68,-0.48 -1.6,-0.44 -2.4,-1 -0.04,-1.28 0.44,-2.52 0.52,-1.24 1.48,-1.92 l 3.88,3.64 q 1.32,0 2.36,-0.64 1.04,-0.64 1.04,-1.96 z" />
      <path
         id="path22"
         style="font-style:italic;font-variant:normal;font-weight:bold;font-stretch:normal;font-family:'PT Serif';-inkscape-font-specification:'PT Serif Bold Italic';letter-spacing:0px"
         d="m 112.72305,122.80041 q -1.12,-1.92 -1.8,-3.8 -0.64,-1.88 -1.24,-3.56 l -1.32,-0.4 -1.8,9.56 h -5.6 l 5.32,-26.759997 -2.68,-0.52 v -1.36 q 0.56,-0.24 1.48,-0.48 0.92,-0.28 2,-0.48 1.08,-0.2 2.24,-0.32 1.2,-0.16 2.32,-0.16 l 0.84,0.44 -3.72,18.319997 h 1.28 q 0.68,-0.52 1.4,-1.24 0.72,-0.72 1.36,-1.44 0.64,-0.72 1.12,-1.4 0.52,-0.72 0.8,-1.2 0.04,-0.28 0.04,-0.76 0.04,-0.48 0,-0.96 0,-0.52 -0.04,-0.96 0,-0.48 -0.04,-0.72 0.68,-0.24 1.72,-0.36 1.04,-0.16 2.12,-0.16 1.08,0 2,0.16 0.96,0.12 1.4,0.36 -0.52,1.32 -1.56,2.6 -1,1.28 -2.2,2.4 -1.16,1.12 -2.32,2.04 -1.12,0.88 -1.84,1.4 0.28,0.76 0.84,1.92 0.6,1.16 1.32,2.44 0.72,1.24 1.52,2.44 0.8,1.16 1.48,2 h 2.16 v 1.36 q -0.4,0.32 -1.04,0.64 -0.6,0.32 -1.32,0.56 -0.72,0.24 -1.48,0.4 -0.76,0.16 -1.48,0.16 -0.96,0 -1.8,-0.44 -0.8,-0.44 -1.48,-1.72 z" />
      <path
         id="path24"
         style="letter-spacing:1px"
         d="m 134.24555,108.40041 q -0.76,0.32 -1.72,1.44 -0.92,1.12 -1.56,2.84 l -2.56,11.92 h -5.6 l 3.56,-17.16 -2.28,-0.52 v -1.36 q 0.68,-0.32 1.56,-0.56 0.92,-0.28 1.92,-0.44 1.04,-0.2 2.12,-0.28 1.08,-0.12 2.08,-0.16 l 0.8,0.48 -1.04,4.96 h 0.16 q 1.2,-2.32 2.76,-3.88 1.56,-1.56 3.64,-1.56 0.56,0 1.12,0.12 0.56,0.08 1.04,0.36 0.08,0.84 -0.16,1.84 -0.2,0.96 -0.56,1.84 -0.36,0.88 -0.84,1.56 -0.48,0.68 -0.92,0.92 z" />
      <path
         id="path26"
         style="letter-spacing:1px"
         d="m 142.46742,106.92041 v -1.36 q 0.6,-0.24 1.6,-0.48 1,-0.28 2.12,-0.48 1.12,-0.2 2.2,-0.32 1.12,-0.16 1.96,-0.16 l 0.72,0.48 -3.6,17.24 h 2.8 v 1.36 q -0.52,0.36 -1.24,0.68 -0.68,0.32 -1.48,0.56 -0.76,0.24 -1.56,0.36 -0.8,0.16 -1.52,0.16 -1.52,0 -2.12,-0.56 -0.56,-0.6 -0.56,-1.28 0,-0.8 0.12,-1.56 0.12,-0.76 0.32,-1.68 l 2.72,-12.4 z m 0.48,-7.079997 0.6,-2.8 h 11.76 l -0.6,2.8 z" />
      <path
         id="path28"
         style="font-style:italic;font-variant:normal;font-weight:bold;font-stretch:normal;font-family:'PT Serif';-inkscape-font-specification:'PT Serif Bold Italic';letter-spacing:0px"
         d="m 159.09492,97.840413 -2.64,-0.52 v -1.28 q 0.76,-0.28 1.88,-0.52 1.12,-0.28 2.24,-0.48 1.16,-0.2 2.2,-0.32 1.08,-0.16 1.72,-0.2 l 0.84,0.44 -3.08,15.159997 h 0.2 q 0.64,-1.2 1.44,-2.28 0.8,-1.08 1.72,-1.92 0.96,-0.84 2,-1.32 1.04,-0.48 2.24,-0.48 1.04,0 1.92,0.4 0.92,0.36 1.56,1.16 0.68,0.76 1.04,2 0.4,1.2 0.4,2.88 0,2.96 -0.8,5.6 -0.8,2.6 -2.4,4.6 -1.56,2 -3.92,3.16 -2.32,1.16 -5.36,1.16 -1.28,0 -2.52,-0.16 -1.2,-0.16 -2.28,-0.44 -1.04,-0.28 -1.88,-0.68 -0.84,-0.4 -1.36,-0.84 z m 7.84,9.479997 q -0.84,0 -1.64,0.68 -0.76,0.68 -1.44,1.64 -0.64,0.96 -1.16,2 -0.52,1.04 -0.84,1.76 l -1.72,8.6 q 0.44,0.4 1.12,0.6 0.68,0.2 1.36,0.2 1.36,0 2.52,-1 1.2,-1 2.08,-2.64 0.88,-1.64 1.36,-3.76 0.52,-2.16 0.52,-4.44 0,-1.68 -0.52,-2.64 -0.52,-1 -1.64,-1 z" />
      <path
         id="path30"
         style="font-style:italic;font-variant:normal;font-weight:bold;font-stretch:normal;font-family:'PT Serif';-inkscape-font-specification:'PT Serif Bold Italic';letter-spacing:0px"
         d="m 193.03305,120.24041 q -0.44,0.8 -1.28,1.68 -0.84,0.84 -1.96,1.56 -1.12,0.68 -2.48,1.12 -1.36,0.48 -2.84,0.48 -3.56,0 -5.56,-1.92 -1.96,-1.96 -1.96,-5.52 0,-2.76 0.88,-5.2 0.88,-2.44 2.44,-4.28 1.6,-1.88 3.76,-2.96 2.2,-1.08 4.8,-1.08 2.4,0 3.96,1.12 1.56,1.08 1.56,3 0,2.72 -2.72,4.48 -2.68,1.76 -8.72,2.2 -0.12,0.56 -0.2,1.16 -0.04,0.56 -0.04,1.08 0,2.28 1.16,3.52 1.16,1.2 2.96,1.2 0.76,0 1.52,-0.24 0.76,-0.24 1.44,-0.64 0.72,-0.4 1.28,-0.84 0.6,-0.48 1.04,-0.92 z m -5.12,-13.84 q -1.36,0 -2.64,1.48 -1.24,1.48 -2.08,5 2.96,-0.08 4.76,-1.32 1.84,-1.24 1.84,-3.24 0,-0.8 -0.44,-1.36 -0.4,-0.56 -1.44,-0.56 z" />
    </g>
  </g>
</svg>
